<svg width="359" height="89" viewBox="0 0 359 89" fill="none" xmlns="http://www.w3.org/2000/svg">
<rect x="1.5" y="1.5" width="356" height="86" rx="11.5" fill="white" stroke="black" stroke-width="3"/>
<path d="M118.54 38.81C116.36 38.81 114.78 39.42 113.8 40.64C112.84 41.84 112.36 43.49 112.36 45.59C112.36 46.61 112.48 47.54 112.72 48.38C112.96 49.2 113.32 49.91 113.8 50.51C114.28 51.11 114.88 51.58 115.6 51.92C116.32 52.24 117.16 52.4 118.12 52.4C118.64 52.4 119.08 52.39 119.44 52.37C119.82 52.35 120.15 52.31 120.43 52.25V45.02H125.11V55.31C124.55 55.53 123.65 55.76 122.41 56C121.17 56.26 119.64 56.39 117.82 56.39C116.26 56.39 114.84 56.15 113.56 55.67C112.3 55.19 111.22 54.49 110.32 53.57C109.42 52.65 108.72 51.52 108.22 50.18C107.74 48.84 107.5 47.31 107.5 45.59C107.5 43.85 107.77 42.31 108.31 40.97C108.85 39.63 109.59 38.5 110.53 37.58C111.47 36.64 112.57 35.93 113.83 35.45C115.11 34.97 116.47 34.73 117.91 34.73C118.89 34.73 119.77 34.8 120.55 34.94C121.35 35.06 122.03 35.21 122.59 35.39C123.17 35.55 123.64 35.72 124 35.9C124.38 36.08 124.65 36.22 124.81 36.32L123.46 40.07C122.82 39.73 122.08 39.44 121.24 39.2C120.42 38.94 119.52 38.81 118.54 38.81ZM143.924 48.08C143.924 49.32 143.744 50.46 143.384 51.5C143.024 52.52 142.504 53.4 141.824 54.14C141.144 54.86 140.324 55.42 139.364 55.82C138.424 56.22 137.364 56.42 136.184 56.42C135.024 56.42 133.964 56.22 133.004 55.82C132.064 55.42 131.254 54.86 130.574 54.14C129.894 53.4 129.364 52.52 128.984 51.5C128.604 50.46 128.414 49.32 128.414 48.08C128.414 46.84 128.604 45.71 128.984 44.69C129.384 43.67 129.924 42.8 130.604 42.08C131.304 41.36 132.124 40.8 133.064 40.4C134.024 40 135.064 39.8 136.184 39.8C137.324 39.8 138.364 40 139.304 40.4C140.264 40.8 141.084 41.36 141.764 42.08C142.444 42.8 142.974 43.67 143.354 44.69C143.734 45.71 143.924 46.84 143.924 48.08ZM139.364 48.08C139.364 46.7 139.084 45.62 138.524 44.84C137.984 44.04 137.204 43.64 136.184 43.64C135.164 43.64 134.374 44.04 133.814 44.84C133.254 45.62 132.974 46.7 132.974 48.08C132.974 49.46 133.254 50.56 133.814 51.38C134.374 52.18 135.164 52.58 136.184 52.58C137.204 52.58 137.984 52.18 138.524 51.38C139.084 50.56 139.364 49.46 139.364 48.08ZM162.147 48.08C162.147 49.32 161.967 50.46 161.607 51.5C161.247 52.52 160.727 53.4 160.047 54.14C159.367 54.86 158.547 55.42 157.587 55.82C156.647 56.22 155.587 56.42 154.407 56.42C153.247 56.42 152.187 56.22 151.227 55.82C150.287 55.42 149.477 54.86 148.797 54.14C148.117 53.4 147.587 52.52 147.207 51.5C146.827 50.46 146.637 49.32 146.637 48.08C146.637 46.84 146.827 45.71 147.207 44.69C147.607 43.67 148.147 42.8 148.827 42.08C149.527 41.36 150.347 40.8 151.287 40.4C152.247 40 153.287 39.8 154.407 39.8C155.547 39.8 156.587 40 157.527 40.4C158.487 40.8 159.307 41.36 159.987 42.08C160.667 42.8 161.197 43.67 161.577 44.69C161.957 45.71 162.147 46.84 162.147 48.08ZM157.587 48.08C157.587 46.7 157.307 45.62 156.747 44.84C156.207 44.04 155.427 43.64 154.407 43.64C153.387 43.64 152.597 44.04 152.037 44.84C151.477 45.62 151.197 46.7 151.197 48.08C151.197 49.46 151.477 50.56 152.037 51.38C152.597 52.18 153.387 52.58 154.407 52.58C155.427 52.58 156.207 52.18 156.747 51.38C157.307 50.56 157.587 49.46 157.587 48.08ZM169.42 47.6C169.42 50.1 170.43 51.35 172.45 51.35C172.91 51.35 173.34 51.29 173.74 51.17C174.14 51.05 174.48 50.91 174.76 50.75V43.61C174.54 43.57 174.28 43.54 173.98 43.52C173.68 43.48 173.33 43.46 172.93 43.46C171.75 43.46 170.87 43.85 170.29 44.63C169.71 45.41 169.42 46.4 169.42 47.6ZM179.23 54.02C179.23 56.6 178.57 58.51 177.25 59.75C175.95 61.01 173.93 61.64 171.19 61.64C170.23 61.64 169.27 61.55 168.31 61.37C167.35 61.21 166.46 60.99 165.64 60.71L166.42 56.96C167.12 57.24 167.85 57.46 168.61 57.62C169.39 57.78 170.27 57.86 171.25 57.86C172.53 57.86 173.43 57.58 173.95 57.02C174.49 56.46 174.76 55.74 174.76 54.86V54.29C174.28 54.51 173.78 54.68 173.26 54.8C172.76 54.9 172.21 54.95 171.61 54.95C169.43 54.95 167.76 54.31 166.6 53.03C165.44 51.73 164.86 49.92 164.86 47.6C164.86 46.44 165.04 45.39 165.4 44.45C165.76 43.49 166.28 42.67 166.96 41.99C167.66 41.31 168.51 40.79 169.51 40.43C170.51 40.05 171.64 39.86 172.9 39.86C173.44 39.86 173.99 39.89 174.55 39.95C175.13 39.99 175.7 40.05 176.26 40.13C176.82 40.21 177.35 40.31 177.85 40.43C178.37 40.53 178.83 40.64 179.23 40.76V54.02ZM189.722 56.3C188.422 56.28 187.362 56.14 186.542 55.88C185.742 55.62 185.102 55.26 184.622 54.8C184.162 54.32 183.842 53.75 183.662 53.09C183.502 52.41 183.422 51.65 183.422 50.81V33.44L187.892 32.72V49.91C187.892 50.31 187.922 50.67 187.982 50.99C188.042 51.31 188.152 51.58 188.312 51.8C188.492 52.02 188.742 52.2 189.062 52.34C189.382 52.48 189.812 52.57 190.352 52.61L189.722 56.3ZM192.164 48.23C192.164 46.83 192.374 45.61 192.794 44.57C193.234 43.51 193.804 42.63 194.504 41.93C195.204 41.23 196.004 40.7 196.904 40.34C197.824 39.98 198.764 39.8 199.724 39.8C201.964 39.8 203.734 40.49 205.034 41.87C206.334 43.23 206.984 45.24 206.984 47.9C206.984 48.16 206.974 48.45 206.954 48.77C206.934 49.07 206.914 49.34 206.894 49.58H196.754C196.854 50.5 197.284 51.23 198.044 51.77C198.804 52.31 199.824 52.58 201.104 52.58C201.924 52.58 202.724 52.51 203.504 52.37C204.304 52.21 204.954 52.02 205.454 51.8L206.054 55.43C205.814 55.55 205.494 55.67 205.094 55.79C204.694 55.91 204.244 56.01 203.744 56.09C203.264 56.19 202.744 56.27 202.184 56.33C201.624 56.39 201.064 56.42 200.504 56.42C199.084 56.42 197.844 56.21 196.784 55.79C195.744 55.37 194.874 54.8 194.174 54.08C193.494 53.34 192.984 52.47 192.644 51.47C192.324 50.47 192.164 49.39 192.164 48.23ZM202.664 46.52C202.644 46.14 202.574 45.77 202.454 45.41C202.354 45.05 202.184 44.73 201.944 44.45C201.724 44.17 201.434 43.94 201.074 43.76C200.734 43.58 200.304 43.49 199.784 43.49C199.284 43.49 198.854 43.58 198.494 43.76C198.134 43.92 197.834 44.14 197.594 44.42C197.354 44.7 197.164 45.03 197.024 45.41C196.904 45.77 196.814 46.14 196.754 46.52H202.664ZM224.181 34.97C227.281 34.97 229.661 35.52 231.321 36.62C232.981 37.7 233.811 39.48 233.811 41.96C233.811 44.46 232.971 46.27 231.291 47.39C229.611 48.49 227.211 49.04 224.091 49.04H222.621V56H217.941V35.51C218.961 35.31 220.041 35.17 221.181 35.09C222.321 35.01 223.321 34.97 224.181 34.97ZM224.481 38.96C224.141 38.96 223.801 38.97 223.461 38.99C223.141 39.01 222.861 39.03 222.621 39.05V45.05H224.091C225.711 45.05 226.931 44.83 227.751 44.39C228.571 43.95 228.981 43.13 228.981 41.93C228.981 41.35 228.871 40.87 228.651 40.49C228.451 40.11 228.151 39.81 227.751 39.59C227.371 39.35 226.901 39.19 226.341 39.11C225.781 39.01 225.161 38.96 224.481 38.96ZM243.248 56.3C241.948 56.28 240.888 56.14 240.068 55.88C239.268 55.62 238.628 55.26 238.148 54.8C237.688 54.32 237.368 53.75 237.188 53.09C237.028 52.41 236.948 51.65 236.948 50.81V33.44L241.418 32.72V49.91C241.418 50.31 241.448 50.67 241.508 50.99C241.568 51.31 241.678 51.58 241.838 51.8C242.018 52.02 242.268 52.2 242.588 52.34C242.908 52.48 243.338 52.57 243.878 52.61L243.248 56.3ZM252.909 52.88C253.349 52.88 253.769 52.87 254.169 52.85C254.569 52.83 254.889 52.8 255.129 52.76V49.37C254.949 49.33 254.679 49.29 254.319 49.25C253.959 49.21 253.629 49.19 253.329 49.19C252.909 49.19 252.509 49.22 252.129 49.28C251.769 49.32 251.449 49.41 251.169 49.55C250.889 49.69 250.669 49.88 250.509 50.12C250.349 50.36 250.269 50.66 250.269 51.02C250.269 51.72 250.499 52.21 250.959 52.49C251.439 52.75 252.089 52.88 252.909 52.88ZM252.549 39.8C253.869 39.8 254.969 39.95 255.849 40.25C256.729 40.55 257.429 40.98 257.949 41.54C258.489 42.1 258.869 42.78 259.089 43.58C259.309 44.38 259.419 45.27 259.419 46.25V55.55C258.779 55.69 257.889 55.85 256.749 56.03C255.609 56.23 254.229 56.33 252.609 56.33C251.589 56.33 250.659 56.24 249.819 56.06C248.999 55.88 248.289 55.59 247.689 55.19C247.089 54.77 246.629 54.23 246.309 53.57C245.989 52.91 245.829 52.1 245.829 51.14C245.829 50.22 246.009 49.44 246.369 48.8C246.749 48.16 247.249 47.65 247.869 47.27C248.489 46.89 249.199 46.62 249.999 46.46C250.799 46.28 251.629 46.19 252.489 46.19C253.069 46.19 253.579 46.22 254.019 46.28C254.479 46.32 254.849 46.38 255.129 46.46V46.04C255.129 45.28 254.899 44.67 254.439 44.21C253.979 43.75 253.179 43.52 252.039 43.52C251.279 43.52 250.529 43.58 249.789 43.7C249.049 43.8 248.409 43.95 247.869 44.15L247.299 40.55C247.559 40.47 247.879 40.39 248.259 40.31C248.659 40.21 249.089 40.13 249.549 40.07C250.009 39.99 250.489 39.93 250.989 39.89C251.509 39.83 252.029 39.8 252.549 39.8ZM277.09 40.22C276.19 43.26 275.25 46.11 274.27 48.77C273.29 51.43 272.22 54.01 271.06 56.51C270.64 57.41 270.22 58.17 269.8 58.79C269.38 59.43 268.92 59.95 268.42 60.35C267.92 60.77 267.35 61.07 266.71 61.25C266.09 61.45 265.36 61.55 264.52 61.55C263.82 61.55 263.17 61.48 262.57 61.34C261.99 61.22 261.51 61.08 261.13 60.92L261.91 57.35C262.37 57.51 262.78 57.62 263.14 57.68C263.5 57.74 263.88 57.77 264.28 57.77C265.08 57.77 265.69 57.55 266.11 57.11C266.55 56.69 266.92 56.1 267.22 55.34C266.2 53.34 265.18 51.1 264.16 48.62C263.14 46.12 262.18 43.32 261.28 40.22H266.02C266.22 41 266.45 41.85 266.71 42.77C266.99 43.67 267.28 44.59 267.58 45.53C267.88 46.45 268.18 47.35 268.48 48.23C268.8 49.11 269.1 49.91 269.38 50.63C269.64 49.91 269.91 49.11 270.19 48.23C270.47 47.35 270.74 46.45 271 45.53C271.28 44.59 271.54 43.67 271.78 42.77C272.04 41.85 272.27 41 272.47 40.22H277.09Z" fill="black"/>
<path d="M17 17.7433V71.2537C17.0004 71.3698 17.035 71.4832 17.0995 71.5797C17.1641 71.6762 17.2557 71.7515 17.3629 71.7961C17.47 71.8408 17.588 71.8528 17.702 71.8306C17.8159 71.8085 17.9208 71.7532 18.0035 71.6717L45.8657 44.4999L18.0035 17.3253C17.9208 17.2437 17.8159 17.1885 17.702 17.1663C17.588 17.1442 17.47 17.1562 17.3629 17.2008C17.2557 17.2455 17.1641 17.3208 17.0995 17.4173C17.035 17.5138 17.0004 17.6272 17 17.7433Z" fill="black"/>
<path d="M57.5481 33.335L22.6125 14.0875L22.5907 14.0753C21.9888 13.7485 21.417 14.5627 21.9099 15.0366L49.2955 41.2227L57.5481 33.335Z" fill="black"/>
<path d="M21.9126 73.9635C21.417 74.4373 21.9889 75.2515 22.5934 74.9247L22.6152 74.9125L57.5481 55.6651L49.2955 47.7747L21.9126 73.9635Z" fill="black"/>
<path d="M71.6515 41.096L61.8957 35.7231L52.7227 44.4999L61.8957 53.2727L71.6515 47.9039C74.3052 46.4375 74.3052 42.5624 71.6515 41.096Z" fill="black"/>
</svg>
