<svg width="96" height="97" viewBox="0 0 96 97" fill="none" xmlns="http://www.w3.org/2000/svg">
<path d="M33.0667 9.21212C21.2364 15.6121 19.4909 26.0848 19.4909 26.0848C19.3939 26.2788 19.297 27.0545 19.5879 27.4424C19.8788 27.7333 20.2667 27.7333 20.7515 27.6364C24.9212 26.1818 37.3333 22.1091 45.0909 19.9758C56.2424 17.0667 65.4545 15.2242 71.2727 14.2545C71.7576 14.1576 72.1455 14.0606 72.2424 13.6727C72.4364 13.0909 72.0485 12.5091 72.0485 12.5091C72.0485 12.5091 68.3636 6.4 55.6606 5.04242C48.8727 4.36364 39.5636 5.72121 33.0667 9.21212ZM48.7758 88.6303C36.5576 88.8242 25.697 84.6545 17.9394 77.3818L13.2848 79.3212V72.0485C8.14545 65.1636 5.13939 56.4364 5.13939 46.4485C5.13939 20.9455 24.6303 0.872727 51.8788 0.872727C56.3394 0.872727 60.3151 1.64848 63.3212 2.32727C58.6667 0.775758 54.0121 0 48.8727 0C19.6848 0 0 23.6606 0 48.097C0 74.6667 20.9455 96.9697 48.2909 96.9697C74.4727 96.9697 88.6303 78.5455 93.0909 67.3939L84.9455 63.0303C78.2545 77.9636 65.5515 88.4364 48.7758 88.6303ZM77.9636 33.6485C74.2788 34.3273 66.9091 37.5273 66.9091 47.6121C66.9091 55.7576 72.8242 58.3758 78.1576 57.697C82.0364 57.3091 84.6545 55.7576 86.1091 54.303C87.4667 53.0424 87.7576 51.2 87.7576 49.8424C87.8545 47.903 87.7576 41.697 87.7576 41.697L77.6727 43.9273V46.3515C77.6727 47.903 78.4485 48.7758 80.097 48.3879C80.5818 48.3879 81.3576 48.097 81.3576 48.097V50.0364C81.3576 49.9394 81.5515 51.103 78.9333 51.5879C75.6364 52.1697 74.0848 50.1333 74.0848 46.4485C74.0848 42.5697 76.3151 40.2424 79.0303 39.6606C82.0364 38.9818 83.6848 39.6606 84.7515 39.8545C88.0485 40.3394 89.0182 35.297 86.0121 34.1333C83.6848 33.2606 80.7758 33.0667 77.9636 33.6485ZM59.1515 42.5697V49.7455C59.1515 49.7455 55.0788 44.6061 52.4606 41.9879C51.0061 40.5333 48.6788 41.4061 48.6788 41.4061L45.1879 42.4727V66.4242C45.1879 66.4242 48.2909 65.3576 48.5818 65.2606C51.103 64.3879 51.9758 62.9333 51.9758 60.3151V52.0727L59.1515 60.4121C60.3151 61.5758 61.8667 61.6727 63.2242 61.2848C64.5818 60.897 65.7455 59.6364 65.7455 57.7939V37.0424C65.7455 37.0424 63.903 37.4303 62.3515 37.9152C60.6061 38.4 59.1515 39.5636 59.1515 42.5697ZM35.3939 69.8182C35.3939 69.8182 37.4303 69.1394 39.2727 68.4606C41.9879 67.3939 42.9576 66.0364 42.9576 63.2242V42.9576C42.9576 42.9576 40.8242 43.6364 38.9818 44.3152C36.7515 45.0909 35.3939 46.4485 35.3939 49.9394V69.8182ZM27.2485 70.5939C28.5091 71.9515 30.7394 72.6303 32.7758 70.9818C34.6182 69.5273 34.3273 66.9091 33.3576 65.8424L28.1212 60.6061C28.1212 60.6061 32.7758 53.3333 33.4545 52.1697C34.5212 50.5212 33.9394 48.5818 32.1939 47.7091C30.1576 46.8364 28.4121 47.8061 27.7333 48.9697L21.5273 59.4424V51.0061L14.2545 54.0121V77.8667L19.3939 75.7333C19.3939 75.7333 20.3636 75.4424 20.9455 74.4727C21.5273 73.6 21.5273 72.1455 21.5273 72.1455V64.5818L27.2485 70.5939ZM56.7273 81.4545C76.2182 76.8 80.2909 63.0303 80.7758 61.0909C80.8727 60.703 80.9697 60.0242 80.5818 59.6364C80.2909 59.3455 79.8061 59.3455 79.2242 59.4424C65.7455 62.6424 43.2485 69.5273 30.2545 75.0545C29.7697 75.3455 29.4788 75.4424 29.2848 75.8303C28.9939 76.4121 29.6727 76.9939 29.6727 76.9939C32.2909 80.3879 44.0242 84.5576 56.7273 81.4545ZM21.8182 36.2667C21.8182 33.8424 19.5879 32.1939 15.903 33.5515C14.5455 34.0364 10.4727 35.6848 10.4727 35.6848V53.0424L16.9697 50.3273C20.0727 49.0667 22.497 47.2242 22.4 43.9273C22.4 42.1818 21.0424 40.9212 19.5879 40.6303C21.1394 39.3697 21.8182 38.0121 21.8182 36.2667ZM14.9333 37.0424C16.3879 36.2667 17.3576 36.5576 17.3576 37.9152C17.3576 38.9818 16.6788 39.8545 15.7091 40.3394C15.5152 40.4364 15.2242 40.5333 14.9333 40.7273V37.0424ZM15.903 47.1273L14.9333 47.6121V43.3455C16.6788 42.4727 17.7455 43.1515 17.7455 44.5091C17.8424 45.7697 16.9697 46.6424 15.903 47.1273ZM28.9939 45.9636C32.2909 44.9939 34.5212 43.0545 34.6182 38.303V29.1879C34.6182 27.7333 33.5515 27.3455 32.3879 27.7333C31.4182 28.0242 30.2545 28.4121 30.2545 28.4121V39.2727C30.2545 40.3394 30.0606 41.697 28.703 41.9879C27.7333 42.2788 27.2485 41.6 27.2485 40.5333V31.7091C27.2485 30.1576 26.1818 29.7697 24.9212 30.1576C23.5636 30.6424 22.7879 30.9333 22.7879 30.9333V41.697C22.7879 45.2848 25.2121 47.0303 28.9939 45.9636ZM71.6606 19.5879V17.7455C69.3333 18.1333 64.9697 19.0061 62.2545 19.6848V35.4909C62.2545 35.4909 67.3939 34.3273 70.303 33.6485C71.2727 33.4545 71.8545 32.7758 71.8545 31.6121V29.7697L66.6182 30.9333V27.8303C66.6182 27.8303 69.1394 27.3455 69.9151 27.1515C70.7879 26.9576 71.2727 26.4727 71.2727 25.503V23.6606L66.6182 24.6303V22.2061C66.6182 22.2061 69.0424 21.7212 70.303 21.4303C71.3697 21.2364 71.6606 20.5576 71.6606 19.5879ZM47.2242 28.3152C47.3212 25.697 44.897 24.1455 41.6 24.9212C39.4667 25.4061 35.7818 26.6667 35.7818 26.6667V42.9576L38.4 42.0848C39.3697 41.697 40.1455 40.9212 40.1455 39.7576V35.4909L43.9273 39.3697C45.1879 40.6303 46.6424 40.0485 47.2242 39.4667C48.1939 38.5939 48.1939 37.0424 47.3212 36.1697L44.5091 33.5515C45.7697 32.4848 47.2242 30.9333 47.2242 28.3152ZM40.1455 33.0667V28.5091C41.0182 28.2182 42.6667 27.8303 42.7636 29.5758C42.7636 31.7091 40.1455 33.0667 40.1455 33.0667ZM77.0909 30.5455V26.6667L80.6788 31.0303C81.3576 31.7091 82.5212 32.097 83.6848 31.4182C84.9455 30.6424 84.9455 29.0909 84.1697 28.2182C83.4909 27.5394 81.3576 25.0182 81.3576 25.0182C82.5212 24.2424 83.9758 22.8848 83.9758 20.5576C83.9758 18.0364 81.8424 16.1939 78.5455 16.5818C77.3818 16.7758 72.8242 17.5515 72.8242 17.5515V33.1636L75.1515 32.7758C76.4121 32.4848 77.0909 31.6121 77.0909 30.5455ZM79.5151 21.2364C79.6121 23.2727 77.0909 24.2424 77.0909 24.2424L76.9939 20.0727C77.8667 19.8788 79.5151 19.5879 79.5151 21.2364ZM55.9515 25.0182C56.9212 24.8242 57.7939 24.9212 58.4727 25.0182C60.1212 25.3091 61.0909 24.4364 61.0909 23.0788C61.1879 21.6242 59.8303 20.6545 57.0182 20.7515C50.9091 20.9455 47.8061 25.4061 47.8061 30.6424C47.8061 35.9758 51.297 38.303 55.5636 37.5273C57.9879 37.0424 59.1515 36.2667 60.0242 35.5879C60.897 34.8121 61.1879 33.7455 61.1879 32.7758V26.6667L54.6909 28.1212V29.9636C54.6909 30.7394 55.2727 31.3212 56.1455 31.1273C56.7273 31.0303 57.1151 30.9333 57.1151 30.9333V32.6788C57.1151 33.4545 56.0485 33.9394 54.9818 33.8424C53.4303 33.8424 52.5576 32.5818 52.4606 30.3515C52.5576 27.3455 54.0121 25.503 55.9515 25.0182ZM91.6364 56.1455C89.3091 56.1455 87.2727 57.7939 87.2727 60.3151C87.2727 62.9333 89.3091 64.5818 91.6364 64.5818C93.9636 64.5818 96 62.9333 96 60.3151C96 57.7939 93.9636 56.1455 91.6364 56.1455ZM91.6364 63.7091C89.8909 63.7091 88.4364 62.2545 88.4364 60.3151C88.4364 58.3758 89.8909 57.0182 91.6364 57.0182C93.3818 57.0182 94.8364 58.3758 94.8364 60.3151C94.8364 62.2545 93.3818 63.7091 91.6364 63.7091ZM93.5758 59.3455C93.5758 58.3758 92.897 57.9879 91.7333 57.9879H89.9879V62.7394H90.8606V60.703H91.4424L92.6061 62.7394H93.5758L92.3151 60.703C93.0909 60.6061 93.5758 60.2182 93.5758 59.3455ZM90.8606 59.9273V58.6667H91.6364C92.1212 58.6667 92.6061 58.7636 92.6061 59.2485C92.6061 59.8303 92.2182 59.9273 91.7333 59.9273H90.8606Z" fill="white"/>
</svg>
