<svg width="98" height="83" viewBox="0 0 98 83" fill="none" xmlns="http://www.w3.org/2000/svg">
<path d="M29.2605 82.9046C21.5001 82.9046 14.0576 79.8218 8.57019 74.3344C3.08279 68.847 0 61.4045 0 53.6442C0 37.4826 14.6302 9.75348 29.2605 9.75348C43.8907 9.75348 58.5209 37.4826 58.5209 53.6442C58.5209 61.4045 55.4381 68.847 49.9507 74.3344C44.4633 79.8218 37.0208 82.9046 29.2605 82.9046ZM61.5055 72.366C65.8894 67.1134 68.2856 60.4858 68.2744 53.6442C68.2744 41.3645 59.8279 22.4086 49.3526 14.0109C54.6829 5.98376 61.4811 0 68.2744 0C82.9046 0 97.5349 27.7292 97.5349 43.8907C97.5361 48.3096 96.5366 52.6713 94.6112 56.6487C92.6858 60.626 89.8845 64.1157 86.4177 66.8556C82.9508 69.5956 78.9084 71.5148 74.5938 72.4691C70.2792 73.4235 65.8045 73.3882 61.5055 72.366Z" fill="white"/>
</svg>
