<svg width="69" height="124" viewBox="0 0 69 124" fill="none" xmlns="http://www.w3.org/2000/svg">
<path fill-rule="evenodd" clip-rule="evenodd" d="M54.7996 123.367H14.2004C6.36971 123.367 0 117.592 0 110.488V54.0884C0 50.8417 3.43222 43.2893 9.06756 31.2378C12.3297 24.2961 16.7669 14.7957 16.8132 12.8786C16.8132 11.92 15.1976 10.1575 14.1077 8.99025C12.2679 7.00359 10.3662 4.93961 11.5567 2.58963C12.7008 0.316939 15.8392 0 19.0859 0H49.8754C53.9724 0.0309209 56.9099 0.510195 58.0154 2.7365C59.1594 5.09422 57.1882 7.19684 55.4489 9.05983C54.3744 10.1962 52.7588 11.9123 52.7588 12.8708C52.7743 14.8034 57.1032 24.4198 60.2958 31.4311C65.7147 43.3743 69 50.8649 69 54.0807V110.48C69 117.592 62.6148 123.367 54.7996 123.367ZM19.2869 7.85391C20.9798 9.72463 22.7887 12.3761 22.7887 15.1126C22.7887 17.795 20.2841 23.7163 15.329 34.4845C11.8582 41.9906 7.14273 52.2563 7.14273 54.5831V109.027C7.14273 113.147 10.8146 116.495 15.2981 116.495H53.6632C58.1777 116.495 61.8418 113.147 61.8418 109.027V54.5831C61.8418 52.2563 57.3042 42.0679 53.9724 34.6391C49.3034 24.1183 46.1572 17.7795 46.1572 15.0739C46.1572 12.3065 48.5458 9.74782 50.2619 7.88483C50.3856 7.73796 49.6744 7.35918 48.971 7.35918H19.9363C19.5266 7.35918 19.1555 7.69931 19.2869 7.85391Z" fill="white"/>
<path fill-rule="evenodd" clip-rule="evenodd" d="M53.4548 101.011C53.4548 106.43 49.4273 107.867 44.4568 107.867H24.6365C19.666 107.867 15.6462 106.43 15.6462 101.011V50.3468C15.6462 44.928 20.5163 62.205 30.9907 54.011C41.4729 45.8479 53.4548 44.928 53.4548 50.3468V101.011Z" fill="white"/>
</svg>
