<svg width="125" height="125" viewBox="0 0 125 125" fill="none" xmlns="http://www.w3.org/2000/svg">
<path d="M119.613 46.8632L108.123 39.2057C106.705 38.26 105.541 36.9786 104.737 35.4754C103.932 33.9721 103.511 32.2935 103.511 30.5885V20.7145H106.963C107.879 20.7145 108.757 20.3508 109.405 19.7033C110.052 19.0559 110.416 18.1777 110.416 17.2621V3.45242C110.416 2.53678 110.052 1.65865 109.405 1.01119C108.757 0.363737 107.879 0 106.963 0H72.4392C71.5236 0 70.6454 0.363737 69.998 1.01119C69.3505 1.65865 68.9868 2.53678 68.9868 3.45242V17.2621C68.9868 18.1777 69.3505 19.0559 69.998 19.7033C70.6454 20.3508 71.5236 20.7145 72.4392 20.7145H75.8916V30.5885C75.8915 32.2935 75.4705 33.9721 74.6658 35.4754C73.8612 36.9786 72.6979 38.26 71.2792 39.2057L59.7896 46.8632C58.3708 47.8089 57.2075 49.0903 56.4029 50.5935C55.5983 52.0967 55.1772 53.7754 55.1771 55.4804V68.6618L48.2723 37.59V24.167C48.2723 23.2513 47.9085 22.3732 47.2611 21.7257C46.6136 21.0783 45.7355 20.7145 44.8199 20.7145H40.4077L34.29 2.36146C34.0032 1.73226 33.5416 1.19882 32.96 0.824764C32.3785 0.450706 31.7016 0.251816 31.0102 0.251816C30.3187 0.251816 29.6419 0.450706 29.0603 0.824764C28.4788 1.19882 28.0171 1.73226 27.7304 2.36146L21.6127 20.7145H17.2005C16.2848 20.7145 15.4067 21.0783 14.7593 21.7257C14.1118 22.3732 13.7481 23.2513 13.7481 24.167V37.6107L0.207663 99.3814C0.153944 99.6077 0.126145 99.8393 0.124804 100.072L0.00051792 113.826C-0.013171 115.195 0.244621 116.553 0.75899 117.822C1.27336 119.09 2.0341 120.244 2.99723 121.217C3.96035 122.19 5.10676 122.962 6.37016 123.489C7.63356 124.016 8.98889 124.287 10.3578 124.287H51.7247C53.585 124.281 55.4091 123.773 57.0039 122.815C58.5987 121.857 59.9048 120.486 60.7839 118.846L60.9012 118.929L70.8925 123.921C71.3726 124.162 71.9022 124.287 72.4392 124.287H106.963C107.5 124.287 108.03 124.162 108.51 123.921L118.501 118.929C120.227 118.074 121.677 116.753 122.689 115.115C123.701 113.477 124.233 111.588 124.226 109.663V55.4804C124.225 53.7754 123.804 52.0967 123 50.5935C122.195 49.0903 121.032 47.8089 119.613 46.8632ZM75.8916 6.90484H103.511V13.8097H75.8916V6.90484ZM31.0102 14.369L33.13 20.7145H28.8904L31.0102 14.369ZM20.6529 27.6194H41.3674V34.5242H20.6529V27.6194ZM55.1771 113.93C55.1771 114.846 54.8134 115.724 54.1659 116.371C53.5185 117.019 52.6403 117.382 51.7247 117.382H10.3578C9.44214 117.382 8.56401 117.019 7.91655 116.371C7.2691 115.724 6.90536 114.846 6.90536 113.93L7.02274 100.541L19.9624 41.4291H42.0579L55.1771 100.5V113.93ZM117.321 109.663C117.321 110.303 117.142 110.931 116.806 111.476C116.469 112.021 115.988 112.462 115.415 112.749L106.149 117.382H73.254L63.9877 112.749C63.415 112.462 62.9334 112.021 62.5968 111.476C62.2602 110.931 62.082 110.303 62.082 109.663V55.4804C62.0823 54.9119 62.223 54.3522 62.4916 53.8511C62.7602 53.35 63.1484 52.923 63.6217 52.608L75.1114 44.9505C77.4755 43.3741 79.4139 41.2383 80.7545 38.733C82.0951 36.2276 82.7965 33.43 82.7965 30.5885V20.7145H96.6062V30.5885C96.6061 33.43 97.3075 36.2276 98.6482 38.733C99.9888 41.2383 101.927 43.3741 104.291 44.9505L115.781 52.608C116.254 52.923 116.642 53.35 116.911 53.8511C117.18 54.3522 117.32 54.9119 117.321 55.4804V109.663Z" fill="white"/>
<path d="M106.963 55.2388H72.4392C71.5236 55.2388 70.6455 55.6025 69.998 56.25C69.3506 56.8974 68.9868 57.7756 68.9868 58.6912V100.12C68.9868 101.036 69.3506 101.914 69.998 102.561C70.6455 103.209 71.5236 103.573 72.4392 103.573H106.963C107.879 103.573 108.757 103.209 109.405 102.561C110.052 101.914 110.416 101.036 110.416 100.12V58.6912C110.416 57.7756 110.052 56.8974 109.405 56.25C108.757 55.6025 107.879 55.2388 106.963 55.2388ZM103.511 96.6678H75.8917V62.1436H103.511V96.6678Z" fill="white"/>
<path d="M41.2639 78.5702C41.0775 77.823 40.6467 77.1595 40.0399 76.6853C39.4331 76.2111 38.6851 75.9535 37.915 75.9532H24.1053C23.3352 75.9535 22.5873 76.2111 21.9805 76.6853C21.3737 77.1595 20.9429 77.823 20.7565 78.5702L13.8516 106.19C13.7247 106.698 13.7154 107.229 13.8244 107.742C13.9333 108.255 14.1577 108.737 14.4805 109.15C14.8033 109.563 15.216 109.898 15.6873 110.128C16.1586 110.358 16.6761 110.477 17.2005 110.477H44.8199C45.3443 110.477 45.8618 110.358 46.3331 110.128C46.8044 109.898 47.217 109.563 47.5398 109.15C47.8626 108.737 48.087 108.255 48.196 107.742C48.305 107.229 48.2956 106.698 48.1687 106.19L41.2639 78.5702ZM21.6265 103.573L26.8051 82.8581H35.2152L40.3939 103.573H21.6265Z" fill="white"/>
</svg>
