<svg width="47" height="112" viewBox="0 0 47 112" fill="none" xmlns="http://www.w3.org/2000/svg">
<path d="M41.346 66.2001C43.2946 64.1469 44.7166 61.6521 45.4903 58.9293C46.2641 56.2065 46.3665 53.3367 45.7889 50.5656C45.5544 49.455 45.0057 48.4351 44.208 47.6275C43.4104 46.8199 42.3974 46.2585 41.2898 46.0103C43.2631 43.9605 44.7048 41.459 45.4891 38.724C46.2733 35.9889 46.3763 33.1035 45.7889 30.3195C45.5506 29.1863 44.9877 28.1468 44.1689 27.328C43.35 26.5091 42.3105 25.9462 41.1773 25.7079C37.3023 24.907 33.2714 25.401 29.7045 27.1139C32.6411 23.9438 34.2912 19.7934 34.333 15.4724C34.3061 12.5961 33.568 9.77105 32.1845 7.24918C30.8009 4.72732 28.8148 2.58699 26.4033 1.01897C25.4436 0.364791 24.3113 0.01023 23.1499 0.00021804C21.9886 -0.0097939 20.8503 0.325194 19.8795 0.96273C17.4477 2.53178 15.441 4.67729 14.038 7.20859C12.635 9.7399 11.8791 12.5786 11.8373 15.4724C11.869 19.8028 13.5364 23.9612 16.5052 27.1139C12.9452 25.3774 8.90638 24.8825 5.03241 25.7079C3.89518 25.9374 2.85098 26.4974 2.03063 27.3178C1.21028 28.1381 0.65028 29.1823 0.420804 30.3195C-0.173778 33.099 -0.0797914 35.9816 0.694574 38.7164C1.46894 41.4512 2.9002 43.9552 4.86369 46.0103C3.76275 46.2603 2.7576 46.8234 1.96933 47.6316C1.18105 48.4399 0.643283 49.4588 0.420804 50.5656C-0.166523 53.3321 -0.074223 56.1998 0.689785 58.9228C1.45379 61.6458 2.86672 64.1429 4.80745 66.2001C3.71858 66.4825 2.73055 67.0641 1.95526 67.8792C1.17997 68.6942 0.648415 69.7101 0.420804 70.8117C-0.148732 73.3272 -0.140032 75.9391 0.446245 78.4507C1.03252 80.9623 2.18109 83.3082 3.80544 85.3115C5.42978 87.3149 7.48756 88.9235 9.82376 90.0163C12.16 91.109 14.7137 91.6574 17.2925 91.6202C18.2934 91.6356 19.2929 91.5413 20.2732 91.339V109.054C20.2732 109.8 20.5695 110.515 21.0968 111.043C21.6241 111.57 22.3394 111.866 23.0852 111.866C23.8309 111.866 24.5462 111.57 25.0735 111.043C25.6009 110.515 25.8971 109.8 25.8971 109.054V91.339C26.896 91.5439 27.9145 91.6382 28.934 91.6202C31.1938 91.6386 33.435 91.211 35.5291 90.3617C37.6233 89.5125 39.5293 88.2583 41.1379 86.6711C43.1575 84.6135 44.6397 82.0906 45.4538 79.3247C46.2678 76.5589 46.3887 73.6353 45.8058 70.8117C45.5651 69.7042 45.0201 68.6858 44.2323 67.8711C43.4444 67.0564 42.4448 66.4777 41.346 66.2001ZM19.8064 85.7713C17.891 86.1825 15.9037 86.1154 14.0204 85.5759C12.1371 85.0364 10.4157 84.0412 9.00851 82.6781C7.61261 81.2492 6.61378 79.4808 6.11075 77.5476C5.60773 75.6144 5.61792 73.5833 6.14032 71.6553C7.01259 71.499 7.89743 71.4237 8.78356 71.4303C10.2968 71.4014 11.8001 71.6807 13.202 72.2511C14.6039 72.8215 15.8751 73.6712 16.9382 74.7484C18.3487 76.1678 19.3573 77.9359 19.8612 79.8724C20.3651 81.809 20.3462 83.8445 19.8064 85.7713ZM19.8064 65.5252C17.8911 65.9405 15.9028 65.8754 14.0187 65.3357C12.1347 64.796 10.4135 63.7985 9.00851 62.4321C7.61307 61.0146 6.61383 59.256 6.11055 57.3316C5.60726 55.4073 5.61752 53.3846 6.14032 51.4654C7.00655 51.2638 7.89428 51.1693 8.78356 51.1842C10.2968 51.1553 11.8001 51.4346 13.202 52.005C14.6039 52.5754 15.8751 53.4251 16.9382 54.5023C18.3487 55.9217 19.3573 57.6899 19.8612 59.6264C20.3651 61.5629 20.3462 63.5984 19.8064 65.5252ZM19.8064 45.2791C17.8911 45.6944 15.9028 45.6293 14.0187 45.0896C12.1347 44.5499 10.4135 43.5524 9.00851 42.186C7.61307 40.7685 6.61383 39.0099 6.11055 37.0855C5.60726 35.1612 5.61752 33.1385 6.14032 31.2194C7.011 31.0453 7.89575 30.9512 8.78356 30.9382C10.2968 30.9093 11.8001 31.1885 13.202 31.7589C14.6039 32.3294 15.8751 33.179 16.9382 34.2563C18.3487 35.6756 19.3573 37.4438 19.8612 39.3803C20.3651 41.3168 20.3462 43.3523 19.8064 45.2791ZM22.9558 25.3143C21.2923 24.2617 19.9182 22.81 18.9586 21.0911C17.999 19.3723 17.4843 17.4408 17.4613 15.4724C17.4788 13.4688 18.0299 11.5059 19.0579 9.78601C20.0859 8.06607 21.5537 6.65113 23.3101 5.68681C24.948 6.74536 26.2983 8.19303 27.2404 9.90057C28.1825 11.6081 28.687 13.5224 28.7091 15.4724C28.6832 17.4704 28.1395 19.4275 27.1311 21.1525C26.1227 22.8775 24.6841 24.3115 22.9558 25.3143ZM37.1843 82.6781C35.7459 84.0595 33.9772 85.0486 32.0472 85.5508C30.1172 86.053 28.0907 86.0514 26.1614 85.5463C25.9876 84.7136 25.8935 83.8662 25.8802 83.0156V82.9031C25.8583 79.8353 27.0512 76.8835 29.1983 74.6922C31.2991 72.6297 34.1279 71.4779 37.0718 71.4866C38.1527 71.4821 39.2298 71.6144 40.2775 71.8802C40.6788 73.7959 40.6068 75.7806 40.0678 77.6622C39.5288 79.5438 38.539 81.2655 37.1843 82.6781ZM37.1843 62.4321C35.7535 63.8251 33.985 64.822 32.0524 65.3249C30.1199 65.8278 28.0897 65.8193 26.1614 65.3003C25.9876 64.4675 25.8935 63.6201 25.8802 62.7695V62.657C25.8642 61.1455 26.1493 59.646 26.719 58.2459C27.2887 56.8458 28.1315 55.5732 29.1983 54.5023C30.228 53.4625 31.4546 52.6385 32.8065 52.0784C34.1585 51.5183 35.6085 51.2335 37.0718 51.2405C38.1509 51.2639 39.2248 51.3958 40.2775 51.6342C40.6788 53.5498 40.6068 55.5345 40.0678 57.4161C39.5288 59.2977 38.539 61.0194 37.1843 62.4321ZM37.1843 42.186C35.7608 43.5901 33.9925 44.5944 32.0574 45.0979C30.1224 45.6014 28.0888 45.5864 26.1614 45.0542C25.9876 44.2214 25.8935 43.374 25.8802 42.5234V42.4109C25.8642 40.8995 26.1493 39.3999 26.719 37.9998C27.2887 36.5997 28.1315 35.3271 29.1983 34.2563C30.2389 33.2193 31.4767 32.4013 32.8387 31.8508C34.2007 31.3002 35.6592 31.0281 37.1281 31.0506C38.1902 31.0497 39.2482 31.182 40.2775 31.4443C40.679 33.3512 40.607 35.3275 40.0677 37.2001C39.5285 39.0727 38.5385 40.7846 37.1843 42.186Z" fill="white"/>
</svg>
